HIERARCHY
ROOT Hips
{
	OFFSET -3.958830 18.904000 13.208200
	CHANNELS 6 Xposition Yposition Zposition Zrotation Yrotation Xrotation 
	JOINT LHipJoint
	{
		OFFSET 0.000000 0.000000 0.000000
		CHANNELS 3 Zrotation Yrotation Xrotation
		JOINT LeftUpLeg
		{
			OFFSET 1.800000 -1.400000 0.085000
			CHANNELS 3 Zrotation Yrotation Xrotation
			JOINT LeftLeg
			{
				OFFSET 2.215000 -6.000000 0.000000
				CHANNELS 3 Zrotation Yrotation Xrotation
				JOINT LeftFoot
				{
					OFFSET 2.500000 -6.900000 0.000000
					CHANNELS 3 Zrotation Yrotation Xrotation
					JOINT LeftToeBase
					{
						OFFSET 0.200000 -0.500000 1.950000
						CHANNELS 3 Zrotation Yrotation Xrotation
						End Site
						{
							OFFSET 0.000000 0.000000 0.000000
						}
					}
				}
			}
		}
	}
	JOINT RHipJoint
	{
		OFFSET 0.000000 0.000000 0.000000
		CHANNELS 3 Zrotation Yrotation Xrotation
		JOINT RightUpLeg
		{
			OFFSET -1.800000 -1.400000 0.085000
			CHANNELS 3 Zrotation Yrotation Xrotation
			JOINT RightLeg
			{
				OFFSET -2.215000 -6.000000 0.000000
				CHANNELS 3 Zrotation Yrotation Xrotation
				JOINT RightFoot
				{
					OFFSET -2.500000 -6.900000 0.000000
					CHANNELS 3 Zrotation Yrotation Xrotation
					JOINT RightToeBase
					{
						OFFSET -0.200000 -0.500000 1.950000
						CHANNELS 3 Zrotation Yrotation Xrotation
						End Site
						{
							OFFSET 0.000000 0.000000 0.000000
						}
					}
				}
			}
		}
	}
	JOINT LowerBack
	{
		OFFSET 0.000000 0.000000 0.000000
		CHANNELS 3 Zrotation Yrotation Xrotation
		JOINT Spine
		{
			OFFSET -0.087000 1.940000 -0.288900
			CHANNELS 3 Zrotation Yrotation Xrotation
			JOINT Spine1
			{
				OFFSET 0.000000 1.950000 0.060000
				CHANNELS 3 Zrotation Yrotation Xrotation
				JOINT Neck
				{
					OFFSET 0.000000 0.000000 0.000000
					CHANNELS 3 Zrotation Yrotation Xrotation
					JOINT Neck1
					{
						OFFSET 0.000000 1.600000 0.340000
						CHANNELS 3 Zrotation Yrotation Xrotation
						JOINT Head
						{
							OFFSET 0.000000 1.667000 -0.240000
							CHANNELS 3 Zrotation Yrotation Xrotation
							End Site
							{
								OFFSET 0.000000 0.000000 0.000000
							}
						}
					}
				}
				JOINT LeftShoulder
				{
					OFFSET 0.000000 0.000000 0.000000
					CHANNELS 3 Zrotation Yrotation Xrotation
					JOINT LeftArm
					{
						OFFSET 2.700000 1.550000 -0.730000
						CHANNELS 3 Zrotation Yrotation Xrotation
						JOINT LeftForeArm
						{
							OFFSET 5.450000 0.000000 0.000000
							CHANNELS 3 Zrotation Yrotation Xrotation
							JOINT LeftHand
							{
								OFFSET 3.450000 0.000000 0.000000
								CHANNELS 3 Zrotation Yrotation Xrotation
								JOINT LeftHandIndex1
								{
									OFFSET 0.750000 0.000000 0.000000
									CHANNELS 3 Zrotation Yrotation Xrotation
									End Site
									{
										OFFSET 0.000000 0.000000 0.000000
									}
								}
							}
						}
					}
				}
				JOINT RightShoulder
				{
					OFFSET 0.000000 0.000000 0.000000
					CHANNELS 3 Zrotation Yrotation Xrotation
					JOINT RightArm
					{
						OFFSET -2.700000 1.550000 -0.730000
						CHANNELS 3 Zrotation Yrotation Xrotation
						JOINT RightForeArm
						{
							OFFSET -5.450000 0.000000 0.000000
							CHANNELS 3 Zrotation Yrotation Xrotation
							JOINT RightHand
							{
								OFFSET -3.450000 0.000000 0.000000
								CHANNELS 3 Zrotation Yrotation Xrotation
								JOINT RightHandIndex1
								{
									OFFSET -0.750000 0.000000 0.000000
									CHANNELS 3 Zrotation Yrotation Xrotation
									End Site
									{
										OFFSET 0.000000 0.000000 0.000000
									}
								}
							}
						}
					}
				}
			}
		}
	}
}
MOTION
Frames: 12
Frame Time: 0.016667
-0.445230 16.870610 -5.459600 0.551517 -8.980940 3.742279 -15.246942 11.630094 4.875909 17.834339 -3.946131 -27.046164 -32.161492 15.689077 21.305418 0.306381 8.892266 1.557044 0.269160 -0.085420 0.249240 18.336796 -10.342378 1.999343 -12.854159 2.577711 -20.938533 8.867562 -7.941037 25.634044 -0.214896 -4.474886 2.816585 0.099650 0.438970 0.225440 -3.554050 -0.902319 -7.847295 5.450465 0.091035 10.371405 -9.334000 1.676214 4.229346 3.056197 -2.012714 -7.678290 -3.637065 0.697898 24.792239 -4.540870 1.468920 -9.920750 -21.151922 -4.863647 1.328318 -30.634382 -1.120735 -4.186681 -2.387295 -22.863031 -0.667073 -4.002573 2.805520 0.429540 0.292300 -0.181460 0.158520 14.760937 7.121150 5.393264 48.691834 2.357019 -6.728352 52.496719 35.767167 11.474317 2.004777 -1.742795 -0.324210 0.337100 0.103710 -0.239620 
-0.459460 16.860820 -5.459590 0.839754 -8.911319 3.691335 -15.267341 11.561326 4.937013 17.984872 -4.026945 -27.351391 -33.083871 15.857228 21.061217 0.352759 8.967265 1.532181 0.270290 -0.079380 0.248800 18.327656 -10.270261 2.013250 -13.688250 2.594982 -21.121437 9.826958 -8.366338 25.880856 -0.237097 -4.621773 2.754811 0.095950 0.429900 0.229170 -3.519957 -0.935798 -7.899380 5.123586 0.106329 10.473998 -9.193816 1.666647 4.197061 3.051244 -1.932756 -7.734453 -3.526349 0.584080 24.853411 -4.589050 1.450740 -9.843670 -21.273744 -4.968179 1.398243 -30.658285 -0.923412 -4.185534 -2.754511 -22.432970 -0.613994 -3.998174 2.817169 0.422200 0.288860 -0.176020 0.157070 14.914897 7.206692 5.445142 48.723512 2.136407 -6.856154 53.539922 36.133962 11.886897 2.012928 -1.758146 -0.311450 0.324820 0.099320 -0.235140 
-0.478100 16.838160 -5.456900 1.229011 -8.748594 3.687575 -15.290137 11.428782 5.015809 18.185202 -4.173221 -27.937688 -34.403860 16.049763 20.656482 0.409002 9.067904 1.501095 0.264260 -0.077840 0.235310 18.326929 -10.132193 2.071484 -15.290959 2.636979 -21.546639 11.856413 -9.262597 26.264429 -0.278148 -4.941781 2.629881 0.091700 0.430240 0.236140 -3.503807 -0.971636 -7.985052 5.012510 0.026504 10.539920 -9.222528 1.574316 4.122485 3.099906 -1.884112 -7.775083 -3.439811 0.488808 24.756430 -4.750190 1.457180 -9.483870 -21.584764 -5.008149 1.419910 -30.653605 -0.613466 -4.113019 -3.528759 -21.489579 -0.517498 -4.007351 2.831830 0.405660 0.296690 -0.178930 0.157030 15.134753 7.196577 5.538144 48.736687 1.599087 -7.071646 55.776287 37.026036 12.874588 2.014183 -1.789760 -0.298770 0.310100 0.100780 -0.227490 
-0.498240 16.806880 -5.451980 1.470970 -8.768587 3.763555 -15.306096 11.222904 5.118316 18.808153 -4.191250 -28.627230 -36.230944 16.402637 20.146341 0.498588 9.225832 1.449604 0.282200 -0.044600 0.233290 18.347740 -9.935509 2.174794 -17.188462 2.740033 -22.131794 14.510660 -10.382102 26.557518 -0.348309 -5.345981 2.470646 0.099240 0.417370 0.247660 -3.538559 -0.967992 -8.104036 5.486494 -0.124783 10.589554 -9.432927 1.466011 4.005996 3.162486 -2.034360 -7.760175 -3.648740 0.520447 24.518969 -4.827210 1.490050 -9.368310 -21.991096 -4.897720 1.358135 -30.934886 -0.435089 -3.954819 -4.177811 -19.913238 -0.473649 -4.007380 2.856843 0.384110 0.296200 -0.169490 0.166600 15.380730 7.139458 5.598982 48.672808 1.069369 -7.216444 58.536481 37.983798 14.127699 2.021112 -1.840226 -0.269180 0.286410 0.083290 -0.213100 
-0.523410 16.766570 -5.445270 1.516682 -9.026603 3.780217 -15.323638 10.977476 5.254107 20.027769 -3.940668 -29.255451 -38.533659 17.030794 19.664204 0.617422 9.479861 1.362262 0.304750 -0.003760 0.234740 18.377835 -9.697909 2.307259 -19.069722 2.944141 -22.783936 17.324382 -11.628885 27.033285 -0.444805 -5.806443 2.292707 0.106410 0.392340 0.263500 -3.590751 -0.950076 -8.268599 6.326942 -0.223576 10.902269 -9.587278 1.445683 3.717246 3.269537 -2.235056 -7.759645 -3.946634 0.698879 24.367593 -5.056470 1.765290 -9.547890 -22.644623 -4.718181 1.240494 -31.387284 -0.124003 -3.860587 -4.695907 -18.248299 -0.473005 -3.998556 2.882703 0.370590 0.288200 -0.146330 0.177840 15.765123 7.062648 5.721065 48.416050 0.250636 -7.437818 62.341508 39.384121 16.040926 2.031309 -1.895182 -0.234000 0.256970 0.060840 -0.199500 
-0.555710 16.716820 -5.441500 1.462328 -9.206807 3.882764 -15.356068 10.692753 5.419286 21.699267 -3.544594 -30.146030 -40.998966 18.001679 19.577082 0.740617 9.840914 1.242702 0.321030 0.023830 0.244340 18.410965 -9.405216 2.463696 -20.941331 3.199906 -23.625946 20.339375 -13.011947 27.584713 -0.554943 -6.310105 2.101328 0.112040 0.371940 0.275390 -3.632609 -0.948898 -8.454664 7.168040 -0.385893 11.212647 -9.644624 1.360086 3.434747 3.407616 -2.320643 -7.744465 -4.032004 0.968016 24.124693 -5.449150 2.258180 -9.713570 -23.335139 -4.555579 1.146102 -31.896479 0.308587 -3.731767 -5.462993 -16.259260 -0.495955 -3.999910 2.895379 0.363450 0.284160 -0.129090 0.181190 16.138022 6.902186 5.789851 48.309276 -0.467428 -7.621477 66.346355 40.968231 18.293767 2.039498 -1.943050 -0.212010 0.234970 0.045240 -0.195680 
-0.594170 16.663230 -5.439170 1.345502 -9.157397 3.980563 -15.394300 10.410716 5.591743 23.543991 -3.046174 -31.108545 -43.330921 19.145010 19.768203 0.863912 10.230277 1.117322 0.334570 0.041040 0.259550 18.443278 -9.108413 2.617519 -22.641212 3.421224 -24.345203 23.315657 -14.378775 27.976859 -0.668665 -6.794410 1.919536 0.113580 0.352000 0.293710 -3.663669 -0.958452 -8.641202 8.014102 -0.513337 11.513083 -9.539822 1.295686 3.128179 3.533802 -2.322235 -7.678345 -3.991821 1.018180 23.935838 -6.079270 2.664270 -9.651230 -24.265846 -4.408467 0.968507 -32.380658 0.571318 -3.547294 -6.292896 -14.095335 -0.551905 -4.009404 2.909276 0.354880 0.284640 -0.114440 0.180630 16.772306 6.676254 5.890186 48.297454 -1.435521 -7.908124 70.408573 42.873491 20.916151 2.050390 -1.991200 -0.190580 0.206680 0.031640 -0.195340 
-0.633370 16.605360 -5.436750 1.281184 -8.953367 3.853853 -15.432536 10.164947 5.753379 25.367764 -2.487486 -31.908909 -45.512073 20.498424 20.299837 0.978388 10.627914 0.984099 0.349040 0.053950 0.282220 18.470536 -8.819720 2.775271 -24.436995 3.565846 -24.805239 26.379360 -15.848252 28.337632 -0.798537 -7.282606 1.741319 0.111470 0.317350 0.306320 -3.681082 -1.011197 -8.842955 8.812028 -0.699206 12.129360 -9.309263 1.191352 2.708161 3.629644 -2.388876 -7.606608 -4.128755 1.142929 24.094897 -6.743070 3.092210 -10.007120 -25.195034 -4.169737 0.743095 -33.017134 0.885470 -3.459291 -7.187024 -12.273724 -0.624562 -4.004550 2.914201 0.365750 0.271360 -0.092510 0.171340 17.464940 6.411491 5.985278 48.250842 -2.379705 -8.148492 75.033513 44.905085 24.156223 2.065515 -2.022037 -0.173490 0.180150 0.022230 -0.205420 
-0.674520 16.545900 -5.439990 1.345615 -8.803589 3.585666 -15.477453 9.947210 5.907844 27.159635 -1.861724 -32.702607 -47.477821 22.088313 21.176431 1.094861 11.025816 0.851301 0.354670 0.059100 0.305230 18.488235 -8.544165 2.932884 -26.230616 3.680548 -25.199888 29.350595 -17.350186 28.744836 -0.932314 -7.747591 1.575755 0.102890 0.276600 0.313010 -3.670477 -1.079508 -9.051352 9.279936 -0.850545 12.884596 -9.021509 1.108622 2.266014 3.771632 -2.272364 -7.588921 -4.012075 1.361325 24.636106 -7.435630 3.702660 -10.396160 -26.007754 -4.053382 0.634787 -33.786978 1.366221 -3.483169 -7.882365 -10.715659 -0.714162 -3.993024 2.911033 0.381960 0.252570 -0.066430 0.155220 17.974199 6.205557 6.016649 48.502569 -2.891840 -8.246122 79.598382 46.379874 27.323383 2.090444 -2.037322 -0.159610 0.154940 0.015790 -0.218910 
-0.711190 16.485430 -5.446850 1.446479 -8.671163 3.316821 -15.518311 9.761927 6.055276 28.815837 -1.219224 -33.537714 -49.136195 23.754817 22.234958 1.202528 11.392278 0.733342 0.356020 0.056870 0.329330 18.503784 -8.295483 3.080583 -27.946348 3.770686 -25.568545 32.043552 -18.750504 29.078302 -1.057185 -8.142769 1.441436 0.088370 0.235840 0.315800 -3.658001 -1.154454 -9.255891 9.785445 -1.028956 13.796091 -8.770996 1.033374 1.694277 3.933911 -2.181795 -7.631064 -3.940304 1.552078 25.219113 -8.195720 4.285120 -10.948860 -26.836906 -3.983053 0.560899 -34.685101 1.998920 -3.610574 -8.344766 -9.427720 -0.814316 -3.975579 2.898058 0.405160 0.230010 -0.038780 0.138060 18.453665 6.108313 6.097081 49.015111 -3.337421 -8.354760 84.353294 47.751785 30.780629 2.120766 -2.037659 -0.149780 0.135870 0.010820 -0.234360 
-0.741400 16.428610 -5.451840 1.506728 -8.568656 2.967095 -15.545326 9.613878 6.175550 30.299180 -0.537186 -34.149151 -50.371643 25.320363 23.286155 1.302651 11.687230 0.639514 0.366940 0.062140 0.365030 18.521520 -8.092197 3.219479 -29.540838 3.864991 -25.753133 34.593539 -20.035341 29.251053 -1.181798 -8.472713 1.330576 0.071250 0.183490 0.322550 -3.663908 -1.202692 -9.447397 10.547769 -1.171459 14.798811 -8.595977 1.041279 1.030127 4.160016 -2.053748 -7.661737 -3.826725 1.614553 26.081430 -9.142030 4.820200 -11.647970 -27.742758 -3.855775 0.442821 -35.772904 2.593520 -3.791548 -8.230548 -8.267329 -0.915292 -3.947143 2.885703 0.433210 0.198650 0.000320 0.124270 18.850966 5.964730 6.174457 49.807304 -3.707494 -8.473074 88.766103 48.847300 34.128983 2.158086 -2.034820 -0.131440 0.110420 -0.005160 -0.249110 
-0.768120 16.372450 -5.456850 1.614391 -8.560847 2.711939 -15.569747 9.478560 6.281327 31.634485 0.190065 -34.748714 -51.395734 26.779671 24.218932 1.389649 11.931639 0.563406 0.373930 0.064950 0.388100 18.539922 -7.904174 3.352175 -31.114534 3.983963 -25.966726 37.021048 -21.229982 29.334030 -1.294331 -8.758167 1.238981 0.054300 0.140560 0.328280 -3.674244 -1.242043 -9.617766 11.339728 -1.212178 15.652621 -8.352049 1.160638 0.365596 4.319714 -2.053235 -7.705043 -3.919111 1.686413 26.904555 -9.845180 5.142330 -12.251220 -28.501730 -3.672231 0.314055 -37.130012 3.173787 -4.015495 -7.722610 -7.272476 -1.004562 -3.923901 2.871938 0.458190 0.169630 0.033740 0.114380 19.232128 5.910281 6.264333 50.760689 -4.019178 -8.564386 92.809080 49.384800 37.050750 2.188309 -2.030681 -0.114660 0.089500 -0.016360 -0.258200 
